<svg xmlns="http://www.w3.org/2000/svg" width="16" height="16" viewBox="0 0 16 16">
  <g id="Groupe_9723" data-name="Groupe 9723" transform="translate(-5 -4.995)">
    <path id="Tracé_16293" data-name="Tracé 16293" d="M18.838,5.013a2.233,2.233,0,0,1,2.151,2.15c.024,3.882,0,7.764,0,11.646a2.242,2.242,0,0,1-2.151,2.175c-3.884.024-7.768,0-11.651,0a2.242,2.242,0,0,1-2.176-2.15c-.024-3.882,0-7.764,0-11.645A2.242,2.242,0,0,1,7.162,5.013q5.838-.036,11.676,0ZM7.192,6.465a.752.752,0,0,0-.729.717q-.036,5.818,0,11.634a.753.753,0,0,0,.717.717q5.82.036,11.64,0a.753.753,0,0,0,.717-.717q.036-5.818,0-11.634a.752.752,0,0,0-.717-.717c-3.876-.024-7.752,0-11.628,0Zm2.29,5.817a.61.61,0,0,1,.4.2L12.2,14.8l3.855-5.138s.438-.409.859-.236a.752.752,0,0,1,.353,1.031.862.862,0,0,1-.05.076l-4.358,5.808a.62.62,0,0,1-.195.18.742.742,0,0,1-.833-.043.861.861,0,0,1-.067-.059l-2.906-2.9a.621.621,0,0,1-.169-.268.749.749,0,0,1,.706-.971.769.769,0,0,1,.091.009Z" fill="#938a56"/>
  </g>
</svg>
