<svg xmlns="http://www.w3.org/2000/svg" width="24" height="24" viewBox="0 0 24 24">
  <g id="Groupe_9543" data-name="Groupe 9543" transform="translate(-432.166 -5946.968)">
    <g id="Groupe_9543-2" data-name="Groupe 9543" transform="translate(432.166 5946.968)">
      <path id="Tracé_16291" data-name="Tracé 16291" d="M15.5,6.939A2.07,2.07,0,0,0,14.31,5.753a3.458,3.458,0,0,0-1.16-.215c-.659-.03-.856-.037-2.525-.037s-1.866.008-2.525.038a3.457,3.457,0,0,0-1.161.215A2.07,2.07,0,0,0,5.753,6.94,3.458,3.458,0,0,0,5.538,8.1c-.03.659-.038.856-.038,2.525s.008,1.866.038,2.525a3.457,3.457,0,0,0,.215,1.161A2.07,2.07,0,0,0,6.94,15.5a3.457,3.457,0,0,0,1.16.215c.659.03.856.037,2.525.037s1.866-.007,2.525-.037a3.458,3.458,0,0,0,1.161-.215A2.07,2.07,0,0,0,15.5,14.31a3.457,3.457,0,0,0,.215-1.16c.03-.659.037-.856.037-2.525s-.007-1.866-.037-2.525A3.458,3.458,0,0,0,15.5,6.939Zm-4.872,6.9a3.21,3.21,0,1,1,3.21-3.21,3.21,3.21,0,0,1-3.21,3.21Zm3.336-5.8a.75.75,0,1,1,.75-.75.75.75,0,0,1-.75.75Z" transform="translate(1.375 1.375)" fill="#f0ede9"/>
      <circle id="Ellipse_14" data-name="Ellipse 14" cx="2.084" cy="2.084" r="2.084" transform="translate(9.916 9.916)" fill="#f0ede9"/>
      <path id="Tracé_16292" data-name="Tracé 16292" d="M12,0A12,12,0,1,0,24,12,12,12,0,0,0,12,0Zm6.212,14.577a4.588,4.588,0,0,1-.291,1.516,3.2,3.2,0,0,1-1.827,1.827,4.588,4.588,0,0,1-1.516.291c-.668.03-.88.038-2.578.038s-1.91-.007-2.578-.038a4.588,4.588,0,0,1-1.516-.291,3.2,3.2,0,0,1-1.828-1.827,4.588,4.588,0,0,1-.291-1.516C5.757,13.91,5.75,13.7,5.75,12s.008-1.91.038-2.578a4.588,4.588,0,0,1,.291-1.516A3.2,3.2,0,0,1,7.906,6.079a4.587,4.587,0,0,1,1.516-.291c.667-.03.88-.038,2.577-.038s1.91.008,2.578.038a4.588,4.588,0,0,1,1.516.291,3.2,3.2,0,0,1,1.827,1.827,4.588,4.588,0,0,1,.291,1.516c.03.667.038.88.038,2.577S18.243,13.91,18.212,14.577Z" fill="#f0ede9"/>
    </g>
  </g>
</svg>
