<svg xmlns="http://www.w3.org/2000/svg" width="24" height="24" viewBox="0 0 24 24">
  <g id="Groupe_7" data-name="Groupe 7" transform="translate(-14.207 -14.166)">
    <path id="Tracé_17" data-name="Tracé 17" d="M26.207,14.166a12,12,0,1,0,12,12A12,12,0,0,0,26.207,14.166Zm6.719,14.7a1.67,1.67,0,0,1-1.67,1.67,41.615,41.615,0,0,1-5.131.207,38.317,38.317,0,0,1-5.036-.207,1.67,1.67,0,0,1-1.671-1.671V23.358a1.67,1.67,0,0,1,1.671-1.67,38.276,38.276,0,0,1,5.032-.207,41.659,41.659,0,0,1,5.135.207,1.67,1.67,0,0,1,1.67,1.67Z" transform="translate(0)" fill="#f0ede9"/>
    <path id="Tracé_18" data-name="Tracé 18" d="M62.019,64.52l4.654-2.687-4.654-2.687Z" transform="translate(-37.812 -35.704)" fill="#f0ede9"/>
  </g>
</svg>
