<svg xmlns="http://www.w3.org/2000/svg" width="16" height="16" viewBox="0 0 16 16">
  <g id="Groupe_9722" data-name="Groupe 9722" transform="translate(-5 -4.995)">
    <path id="Tracé_16293" data-name="Tracé 16293" d="M18.838,5.013a2.233,2.233,0,0,1,2.151,2.15c.024,3.882,0,7.764,0,11.646a2.242,2.242,0,0,1-2.151,2.175c-3.884.024-7.768,0-11.651,0a2.242,2.242,0,0,1-2.176-2.15c-.024-3.882,0-7.764,0-11.645A2.242,2.242,0,0,1,7.162,5.013q5.838-.036,11.676,0ZM7.192,6.465a.752.752,0,0,0-.729.717q-.036,5.818,0,11.634a.753.753,0,0,0,.717.717q5.82.036,11.64,0a.753.753,0,0,0,.717-.717q.036-5.818,0-11.634a.752.752,0,0,0-.717-.717c-3.876-.024-7.752,0-11.628,0Z" fill="#fff"/>
  </g>
</svg>
