<svg xmlns="http://www.w3.org/2000/svg" width="24" height="24" viewBox="0 0 24 24">
  <g id="Groupe_5" data-name="Groupe 5" transform="translate(-0.001)">
    <g id="Groupe_6" data-name="Groupe 6" transform="translate(0.001)">
      <circle id="Ellipse_1" data-name="Ellipse 1" cx="12" cy="12" r="12" transform="translate(0)" fill="#f0ede9"/>
      <path id="Tracé_16" data-name="Tracé 16" d="M38.92,35.4a5.534,5.534,0,0,1-1.628.459,2.91,2.91,0,0,0,1.247-1.613,5.58,5.58,0,0,1-1.8.707,2.8,2.8,0,0,0-2.07-.92,2.876,2.876,0,0,0-2.835,2.915,2.989,2.989,0,0,0,.074.664,7.975,7.975,0,0,1-5.843-3.046,2.974,2.974,0,0,0,.877,3.892,2.756,2.756,0,0,1-1.284-.365v.037a2.9,2.9,0,0,0,2.274,2.858,2.769,2.769,0,0,1-1.28.05A2.849,2.849,0,0,0,29.3,43.059a5.593,5.593,0,0,1-4.2,1.207,7.858,7.858,0,0,0,4.345,1.31,8.134,8.134,0,0,0,8.065-8.295c0-.126,0-.252-.008-.377A5.842,5.842,0,0,0,38.92,35.4Z" transform="translate(-19.646 -26.856)" fill="#222"/>
    </g>
  </g>
</svg>
