<svg id="Groupe_4" data-name="Groupe 4" xmlns="http://www.w3.org/2000/svg" width="24" height="24" viewBox="0 0 24 24">
  <path id="Tracé_14" data-name="Tracé 14" d="M24,12A12,12,0,1,0,10.125,23.851V15.466H7.078V12h3.047V9.355c0-3.007,1.792-4.668,4.533-4.668a18.456,18.456,0,0,1,2.686.234V7.874H15.831a1.734,1.734,0,0,0-1.956,1.874V12H17.2l-.532,3.468h-2.8v8.384A12,12,0,0,0,24,12Z" fill="#f0ede9"/>
  <path id="Tracé_15" data-name="Tracé 15" d="M311.823,211.04l.545-3.552H308.96v-2.3a1.776,1.776,0,0,1,2-1.919h1.549V200.24a18.9,18.9,0,0,0-2.751-.24c-2.807,0-4.641,1.7-4.641,4.781v2.707H302v3.552h3.12v8.586a12.417,12.417,0,0,0,3.84,0V211.04Z" transform="translate(-295.049 -195.775)" fill="#222"/>
</svg>
