<svg id="Groupe_9681" data-name="Groupe 9681" xmlns="http://www.w3.org/2000/svg" xmlns:xlink="http://www.w3.org/1999/xlink" width="131.919" height="60.077" viewBox="0 0 131.919 60.077">
  <defs>
    <clipPath id="clip-path">
      <rect id="Rectangle_1818" data-name="Rectangle 1818" width="131.919" height="60.077" fill="#adadad"/>
    </clipPath>
  </defs>
  <path id="Tracé_16584" data-name="Tracé 16584" d="M45.27,0,39.2,16.427H76.8L82.873,0Z" transform="translate(-30.58 0)" fill="#adadad"/>
  <path id="Tracé_16585" data-name="Tracé 16585" d="M27.721,84.6,25.5,90.581H63.081L65.3,84.6Z" transform="translate(-19.893 -65.996)" fill="#adadad"/>
  <path id="Tracé_16586" data-name="Tracé 16586" d="M223.626,8.269,226.969,18.6h-6.817ZM219.668,0,208.3,30.677H216l2.155-6.135h10.907l2,6.135h7.895L227.738,0Z" transform="translate(-162.494 -0.001)" fill="#adadad"/>
  <g id="Groupe_9688" data-name="Groupe 9688">
    <g id="Groupe_9687" data-name="Groupe 9687" clip-path="url(#clip-path)">
      <path id="Tracé_16587" data-name="Tracé 16587" d="M371.989,9.9a9.474,9.474,0,0,0-6.729-2.7,7.946,7.946,0,0,0-6.4,2.793V0H352V30.7h6.729V28.631a8.089,8.089,0,0,0,6.377,2.661,9.1,9.1,0,0,0,6.707-2.617c2.177-2.2,3.386-5.629,3.386-9.676.022-3.848-1.122-6.993-3.211-9.1m-3.826,9.5c0,.638-.132,6.311-4.552,6.311a4.726,4.726,0,0,1-3.386-1.253,6.732,6.732,0,0,1-1.583-4.728c0-2.595.528-4.464,1.649-5.563a4.865,4.865,0,0,1,6.267,0c1.341,1.385,1.605,3.628,1.605,5.234" transform="translate(-274.595)" fill="#adadad"/>
      <path id="Tracé_16588" data-name="Tracé 16588" d="M478.833,35.2V48.416c0,4.31-3.32,4.662-4.332,4.662a3.555,3.555,0,0,1-2.617-.88,3.649,3.649,0,0,1-.9-2.815V35.222H464.1V50.241a8.812,8.812,0,0,0,2.221,6.377,8.479,8.479,0,0,0,6.025,2.177,8.13,8.13,0,0,0,6.685-2.969V58.18h6.619V35.2Z" transform="translate(-362.044 -27.459)" fill="#adadad"/>
      <path id="Tracé_16589" data-name="Tracé 16589" d="M29.357,140.623H16.009v5.827h7.1c-1.429,5.366-5.717,5.783-7.059,5.783a8.628,8.628,0,0,1-6.179-2.2c-1.627-1.671-2.441-4.244-2.441-7.7,0-3.518.924-6.311,2.727-8.092A7.959,7.959,0,0,1,15.987,132a6.762,6.762,0,0,1,4.9,1.979,4.463,4.463,0,0,1,1.473,2.529v.374h7.323l-.044-.418C29.357,132.861,26.036,126,15.591,126A15.094,15.094,0,0,0,4.53,130.2C1.605,133.081,0,137.369,0,142.273c0,4.97,1.539,9.126,4.4,11.985a14.361,14.361,0,0,0,10.291,4.112,11.646,11.646,0,0,0,9.456-4.112l.506,2.969.066.308h5.036v-16.91Z" transform="translate(0 -98.292)" fill="#adadad"/>
      <path id="Tracé_16590" data-name="Tracé 16590" d="M167.216,184.422c-.418-.154-1.122-.594-1.122-3.3V169.117a5.915,5.915,0,0,0-1.605-4.222c-2.375-2.331-6.531-2.595-8.18-2.595-4.75,0-10.313.9-11.017,8.092l-.066.44h6.817l.022-.352c.2-1.341.77-2.749,3.452-2.749,1.187,0,2.485.088,3.189.792a1.968,1.968,0,0,1,.506,1.407c0,.264,0,1.121-1.847,1.363l-5.607.792c-4.6.616-7.257,3.342-7.257,7.455a6.28,6.28,0,0,0,1.8,4.706,8.278,8.278,0,0,0,5.827,2.133,10.225,10.225,0,0,0,7.367-2.749,21.97,21.97,0,0,0,.594,2.177H167.5v-1.363Zm-13.172-2.947a2.721,2.721,0,0,1-1.913-.7,2.16,2.16,0,0,1-.572-1.583c0-1.957,1.3-2.507,3.892-2.947a14.288,14.288,0,0,0,3.76-.9V177.5c0,2.507-2.639,3.98-5.168,3.98" transform="translate(-112.724 -126.61)" fill="#adadad"/>
      <path id="Tracé_16591" data-name="Tracé 16591" d="M270.72,162.3h-.2a6.576,6.576,0,0,0-6.047,3.5v-2.9H257.9v22.958h6.839V173.911a5.3,5.3,0,0,1,1.121-3.628,5.824,5.824,0,0,1,4.068-1.275,6,6,0,0,1,.792.066Z" transform="translate(-201.188 -126.61)" fill="#adadad"/>
      <path id="Tracé_16592" data-name="Tracé 16592" d="M332.541,176.989v.374a3.9,3.9,0,0,1-6.509,2.485c-1.5-1.5-1.5-4.42-1.5-5.805,0-1.012.154-3.5,1.583-4.97a3.922,3.922,0,0,1,2.815-1.056c2.727-.176,3.452,2.221,3.628,3.255l.066.308h6.9l-.022-.418c-.528-6.553-5.805-8.862-10.577-8.862-7.389,0-11.435,4.508-11.435,12.688,0,2.067.4,5.893,3.057,8.576,1.913,1.913,4.6,2.859,8,2.859,7.938,0,10.6-5.651,10.929-9.038l.044-.418h-6.993Z" transform="translate(-247.681 -126.61)" fill="#adadad"/>
      <rect id="Rectangle_1817" data-name="Rectangle 1817" width="6.883" height="22.958" transform="translate(93.392 36.306)" fill="#adadad"/>
      <path id="Tracé_16593" data-name="Tracé 16593" d="M486.56,184.422c-.418-.154-1.143-.594-1.143-3.3V169.117a5.858,5.858,0,0,0-1.649-4.222c-2.353-2.331-6.531-2.595-8.18-2.595-4.75,0-10.269.9-11.039,8.092l-.044.44h6.839l.044-.352c.154-1.341.748-2.749,3.43-2.749,1.209,0,2.507.088,3.211.792a2.058,2.058,0,0,1,.484,1.407c0,.264,0,1.121-1.847,1.363l-5.629.792c-4.6.616-7.235,3.342-7.235,7.455a6.28,6.28,0,0,0,1.8,4.706,8.223,8.223,0,0,0,5.805,2.133,10.183,10.183,0,0,0,7.367-2.749,21.971,21.971,0,0,0,.594,2.177H486.8v-1.363Zm-13.238-2.947a2.783,2.783,0,0,1-1.891-.7,2.074,2.074,0,0,1-.572-1.583c0-1.957,1.319-2.507,3.87-2.947a14.773,14.773,0,0,0,3.8-.9V177.5c0,2.507-2.617,3.98-5.212,3.98" transform="translate(-361.81 -126.61)" fill="#adadad"/>
      <path id="Tracé_16594" data-name="Tracé 16594" d="M571.5,243.379a3.123,3.123,0,1,1,3.123,3.079,3.1,3.1,0,0,1-3.123-3.079m3.123,2.595a2.573,2.573,0,1,0-2.551-2.573,2.557,2.557,0,0,0,2.551,2.573m-.66-.814h-.528v-3.54h1.341c.836,0,1.253.308,1.253.99a.885.885,0,0,1-.9.968l.99,1.583h-.638l-.9-1.539h-.638v1.539Zm.638-1.979c.462,0,.88-.022.88-.572,0-.44-.4-.506-.77-.506h-.748v1.078Z" transform="translate(-445.827 -187.458)" fill="#adadad"/>
    </g>
  </g>
</svg>
