<svg xmlns="http://www.w3.org/2000/svg" xmlns:xlink="http://www.w3.org/1999/xlink" width="57.521" height="13.18" viewBox="0 0 57.521 13.18">
  <defs>
    <clipPath id="clip-path">
      <rect id="Rectangle_4" data-name="Rectangle 4" width="57.521" height="13.18" fill="#f0ede9"/>
    </clipPath>
  </defs>
  <g id="Groupe_348" data-name="Groupe 348" transform="translate(-1568 -2639.715)">
    <g id="Groupe_3" data-name="Groupe 3" transform="translate(1568 2639.715)">
      <g id="Groupe_2" data-name="Groupe 2" transform="translate(0 0)" clip-path="url(#clip-path)">
        <path id="Tracé_2" data-name="Tracé 2" d="M170.4,3.957h-1.328a1.275,1.275,0,0,1-1.14-1.509,1.256,1.256,0,0,1,1.373-.977,1.213,1.213,0,0,1,.954.655.879.879,0,0,1,.133.377c.009.188.009,1.454.009,1.454" transform="translate(-134.658 -1.175)" fill="#f0ede9"/>
        <rect id="Rectangle_2" data-name="Rectangle 2" width="1.82" height="12.861" transform="translate(29.86 0.268)" fill="#f0ede9"/>
        <rect id="Rectangle_3" data-name="Rectangle 3" width="1.798" height="9.172" transform="translate(33.99 3.957)" fill="#f0ede9"/>
        <path id="Tracé_3" data-name="Tracé 3" d="M192.188,22.771a4.671,4.671,0,0,1,.983-1.454,4.574,4.574,0,0,1,1.465-.983,4.628,4.628,0,0,1,3.574,0,4.771,4.771,0,0,1,1.466.983,4.545,4.545,0,0,1,.991,1.454,4.416,4.416,0,0,1,.358,1.791v4.611h-1.819V24.561a2.7,2.7,0,0,0-.216-1.075,2.831,2.831,0,0,0-.594-.882,2.729,2.729,0,0,0-.894-.594,2.772,2.772,0,0,0-1.086-.217,2.7,2.7,0,0,0-1.077.217,2.761,2.761,0,0,0-1.693,2.551v4.612H191.83V24.562a4.453,4.453,0,0,1,.358-1.791" transform="translate(-153.829 -16.018)" fill="#f0ede9"/>
        <path id="Tracé_4" data-name="Tracé 4" d="M254.777,26.064l1.288,1.289-.636.634a4.589,4.589,0,0,1-6.506,0,4.34,4.34,0,0,1-1-1.524,4.793,4.793,0,0,1-.329-1.73,4.707,4.707,0,0,1,.329-1.718,4.351,4.351,0,0,1,1-1.513,4.472,4.472,0,0,1,1.523-1.015,4.608,4.608,0,0,1,3.46,0A4.463,4.463,0,0,1,255.43,21.5l.636.633-5.1,5.1a2.73,2.73,0,0,0,3.173-.532Zm-4.565-3.3a2.742,2.742,0,0,0-.532,3.172q.248-.244.748-.745t1.066-1.065c.375-.376.734-.734,1.082-1.076s.618-.606.809-.8a2.768,2.768,0,0,0-1.648-.265,2.645,2.645,0,0,0-1.524.778" transform="translate(-198.544 -16.159)" fill="#f0ede9"/>
        <path id="Tracé_5" data-name="Tracé 5" d="M8.924,24.581a4.855,4.855,0,0,0-1.3-2.72,4.371,4.371,0,0,0-5.158-.982A4.789,4.789,0,0,0,0,25.183a4.319,4.319,0,0,0,3.386,4.081,6.152,6.152,0,0,0,3.637-.57v.68l1.906.009s.056-3.346-.008-4.8m-4.5,3.058a2.647,2.647,0,0,1,0-5.294,2.647,2.647,0,0,1,0,5.294" transform="translate(0 -16.388)" fill="#f0ede9"/>
        <path id="Tracé_6" data-name="Tracé 6" d="M101.845,24.735a4.87,4.87,0,0,0-1.3-2.721,4.367,4.367,0,0,0-5.157-.979,4.79,4.79,0,0,0-2.469,4.3,4.322,4.322,0,0,0,3.385,4.081,6.163,6.163,0,0,0,3.638-.57v.68l1.906.009s.054-3.346-.008-4.8m-4.5,3.058a2.647,2.647,0,1,1,2.6-2.645,2.619,2.619,0,0,1-2.6,2.645" transform="translate(-74.512 -16.511)" fill="#f0ede9"/>
        <path id="Tracé_7" data-name="Tracé 7" d="M44.934,0s1.7.369,1.858,1.045c0,0,.047.042.047.224s-.007,2.5.009,2.729A2.771,2.771,0,0,0,48.026,6.14a2.856,2.856,0,0,0,4.538-2.127s0-2.768.026-2.88.134-.443.728-.727A5.1,5.1,0,0,1,54.48.018L54.472,4a4.334,4.334,0,0,1-.752,2.4,4.81,4.81,0,0,1-3.051,2.1l-.008,4.579H48.754L48.73,8.5a4.635,4.635,0,0,1-3.038-2.082A4.753,4.753,0,0,1,44.934,4Z" transform="translate(-36.033 0)" fill="#f0ede9"/>
      </g>
    </g>
  </g>
</svg>
