<svg id="Groupe_9679" data-name="Groupe 9679" xmlns="http://www.w3.org/2000/svg" width="180.3" height="26.268" viewBox="0 0 180.3 26.268">
  <path id="Tracé_16573" data-name="Tracé 16573" d="M9.2,13.134,0,26.268H7.995l9.2-13.134ZM28.191,6.552l4.6,6.552-4.6,6.552H19.025l-4.6,6.552H31.618l9.2-13.134L32.189.842ZM0,0,4.6,6.552H21.79L26.388,0ZM38.02,0l9.2,13.134-9.2,13.134h8.024l9.2-13.134L46.044,0Z" fill="#adadad"/>
  <path id="Tracé_16574" data-name="Tracé 16574" d="M198.865,19.686H204l4.6,6.552h8.025L205.446,10.309ZM198.264,0,179.9,26.238h8.025L202.261,5.71Z" transform="translate(-125.831)" fill="#adadad"/>
  <path id="Tracé_16575" data-name="Tracé 16575" d="M496.765,19.686H501.9l4.6,6.552H514.5l-11.15-15.929ZM496.164,0,477.8,26.238h7.994L500.161,5.71Z" transform="translate(-334.197)" fill="#adadad"/>
  <path id="Tracé_16576" data-name="Tracé 16576" d="M320.9,0l11.18,15.959,4-5.71L328.925,0Zm28.762,0L335.3,20.528l4,5.71,10.369-14.817,3.156,4.508,4-5.71Zm20.708,0L356,20.528l4,5.71L378.4,0Z" transform="translate(-224.454)" fill="#adadad"/>
  <path id="Tracé_16577" data-name="Tracé 16577" d="M267.6,0l18.394,26.238h7.995L275.624,0Z" transform="translate(-187.173 0)" fill="#adadad"/>
</svg>
