<svg id="Groupe_9682" data-name="Groupe 9682" xmlns="http://www.w3.org/2000/svg" width="120.637" height="43.216" viewBox="0 0 120.637 43.216">
  <g id="Groupe_9692" data-name="Groupe 9692">
    <path id="Tracé_16595" data-name="Tracé 16595" d="M104.457,43.2s-9.8-15.826-11.211-18.241c-1.414-2.16-1.473-3.632-.059-5.733,1.414-2.356,11.27-18.4,11.27-18.4h16.179L108.718,20.3a2.819,2.819,0,0,0,.1,3.593c.137.255,11.82,19.321,11.82,19.321H104.457Zm-14.2,0H75.633V.825H90.261ZM66.4,16.807a8.4,8.4,0,1,1,8.423-8.4,8.413,8.413,0,0,1-8.423,8.4M57.02,43.2H42.352V.825H57.02Zm-31.828,0L15.649.825h9.5a8.475,8.475,0,0,1,8.306,6.794L41.449,43.2ZM14.8,43.2H0V.825H14.8Z" fill="#adadad"/>
  </g>
</svg>
